<svg width="95" height="90" viewBox="0 0 95 90" fill="none" xmlns="http://www.w3.org/2000/svg">
<path d="M88.2143 19.1492H75.8664L77.9422 7.50338C78.5584 4.04571 76.0602 0.778378 72.3652 0.201439C68.6479 -0.368561 65.1723 1.96418 64.5553 5.4157L62.1105 19.1492H41.9442L44.02 7.50338C44.6362 4.04571 42.138 0.778378 38.443 0.201439C34.7257 -0.368561 31.2501 1.96418 30.633 5.4157L28.1819 19.1492H13.5714C9.82444 19.1492 6.78571 21.9903 6.78571 25.4936C6.78571 29.1812 9.82444 31.8379 13.5714 31.8379H25.9193L21.3962 57.2153H6.78571C3.03873 57.2153 0 60.0564 0 63.5596C0 67.0629 3.03873 69.7255 6.78571 69.7255H19.1336L17.0578 81.3714C16.4416 84.829 18.9398 88.0964 22.6348 88.6733C23.0078 89.0956 23.3895 89.1154 23.75 89.1154C27.0071 89.1154 29.8826 86.9167 30.436 83.8159L32.8831 70.0824H53.0537L50.9779 81.7282C50.3617 85.1859 52.8599 88.4532 56.5549 89.0302C56.9364 89.0956 57.3181 89.1154 57.6786 89.1154C60.9357 89.1154 63.8112 86.9167 64.3646 83.8159L66.8117 70.0824H81.4286C85.1756 70.0824 88.2143 67.2413 88.2143 63.9165C88.2143 60.4132 85.1756 57.5722 81.4286 57.5722H69.0807L73.6038 32.1948H88.2143C91.9613 32.1948 95 29.3557 95 26.0289C95 22.1628 91.9676 19.1492 88.2143 19.1492ZM55.3248 57.2153H35.1585L39.6752 31.8379H59.8458L55.3248 57.2153Z" fill="#63C196"/>
</svg>
