<svg width="136" height="103" viewBox="0 0 136 103" fill="none" xmlns="http://www.w3.org/2000/svg">
<path d="M103.704 38.1232H71.4025L71.4025 48.4644C71.4025 55.9741 65.6478 62.8218 57.6851 63.5735C48.5282 64.4376 40.8015 57.707 40.8015 49.29V25.2215L35.5929 28.1588C26.181 33.477 20.4093 43.0286 20.4093 53.3579L3.4087 62.5904C0.167963 64.3355 -0.975325 68.2496 0.911738 71.2906L17.9123 98.9284C19.7983 101.969 23.9688 103.016 27.2095 101.271L49.1827 89.3569H78.2112C85.7021 89.3569 91.8116 83.6239 91.8116 76.5948C97.4452 76.5948 102.012 72.3095 102.012 67.0233V57.4457H103.712C106.528 57.4457 108.812 55.3021 108.812 52.66L108.812 43.0884C108.804 40.4363 106.53 38.1232 103.704 38.1232ZM135.091 30.8249L118.101 3.18705C116.215 0.14609 112.044 -0.900797 108.804 0.844015L86.8305 12.7586H73.5339C65.4905 12.7586 57.6107 14.8743 50.7744 18.8664C48.813 20.037 47.6017 22.0709 47.6017 24.2644L47.6016 49.4695C47.6016 53.8823 51.4012 57.4457 56.1019 57.4457C60.8046 57.4457 64.6021 53.8803 64.6021 49.4695V31.7422H103.703C110.276 31.7422 115.604 36.7413 115.604 42.909V48.5921L132.604 39.3695C135.856 37.7842 136.961 33.8758 135.091 30.8249Z" fill="#63C196"/>
</svg>
