<svg width="73" height="44" viewBox="0 0 73 44" fill="none" xmlns="http://www.w3.org/2000/svg">
<path d="M22.876 7.6875C27.844 3.5625 34.5483 0 42.5834 0C50.6184 0 57.3228 3.5625 62.2908 7.6875C67.2335 11.8125 70.7568 16.6375 72.5438 20.1625C73.1521 21.3125 73.1521 22.6875 72.5438 23.8375C70.7568 27.25 67.2335 32.1875 62.2908 36.3125C57.3228 40.4375 50.6184 44 42.5834 44C34.5483 44 27.844 40.4375 22.876 36.3125C20.8228 34.5875 19.0105 32.7375 17.4643 30.9125L6.09866 37.45C4.5132 38.3625 2.50443 38.1125 1.20083 36.8375C-0.102944 35.5625 -0.376275 33.5875 0.534449 32.0125L6.33692 22L0.534449 11.9875C-0.376275 10.4125 -0.102944 8.4375 1.20083 7.1625C2.50443 5.8875 4.5132 5.6375 6.09866 6.55L17.4643 13.0875C19.0105 11.2625 20.8228 9.4125 22.876 7.6875ZM52.7223 18C50.479 18 48.6667 19.7875 48.6667 22C48.6667 24.2125 50.479 26 52.7223 26C54.9655 26 56.7778 24.2125 56.7778 22C56.7778 19.7875 54.9655 18 52.7223 18Z" fill="#0A78B8"/>
</svg>
