<svg width="82" height="103" viewBox="0 0 82 103" fill="none" xmlns="http://www.w3.org/2000/svg">
<path d="M61.5054 71.4595C64.491 69.8464 65.2491 65.4683 67.673 63.2046C70.0969 60.941 74.7846 60.237 76.5123 57.4468C78.2165 54.6965 76.5477 50.5581 77.4462 47.4169C78.3126 44.3755 81.815 41.5833 81.815 38.2925C81.815 35.0018 78.1268 32.2056 77.2577 29.1721C76.3592 26.031 78.029 21.8926 76.3254 19.1423C74.5986 16.3541 69.9122 15.6481 67.4883 13.3844C65.0644 11.1208 64.3084 6.74308 61.3228 5.12961C58.3778 3.53827 53.9464 5.09696 50.5828 4.25705C47.5171 3.44433 44.5273 0 41.0035 0C37.4798 0 34.4899 3.44433 31.2438 4.25606C27.8695 5.09371 23.4488 3.53608 20.4974 5.12562C17.5118 6.73909 16.7558 11.1168 14.3319 13.3785C11.9101 15.6421 7.22033 16.3481 5.49262 19.1363C3.7884 21.8786 5.45845 26.027 4.55936 29.1582C3.68803 32.2096 0 35.0018 0 38.2925C0 41.5833 3.6882 44.3795 4.55739 47.413C5.45584 50.5541 3.78537 54.6925 5.48873 57.4428C7.21819 60.231 11.9037 60.929 14.3255 63.2026C16.7494 65.4663 17.5054 69.844 20.4931 71.4595C23.4381 73.0508 27.8674 71.491 31.231 72.3308C34.4899 73.1348 37.4798 76.5851 41.0035 76.5851C44.5273 76.5851 47.5214 73.1408 50.7718 72.329C54.1375 71.4994 58.5582 73.055 61.5054 71.4595ZM23.9187 38.2925C23.9187 29.4633 31.5663 22.3373 41.0035 22.3373C50.4408 22.3373 58.0884 29.4633 58.0884 38.2925C58.0884 47.1018 50.4408 54.2478 41.0035 54.2478C31.5663 54.2478 23.9187 47.1078 23.9187 38.2925ZM0.36694 86.3976C-0.327133 88.0306 -0.0134117 89.8838 1.19449 91.234C2.40239 92.5802 4.29753 93.2081 6.13202 92.859L15.7828 91.0571L20.3594 99.4874C21.2406 101.116 22.979 102.113 24.9224 102.113C24.9958 102.113 25.0642 102.111 25.1377 102.108C27.1665 102.033 28.907 100.895 29.6737 99.1404L36.8451 82.7703C25.3747 81.8451 15.0619 77.162 7.33095 70.0161L0.36694 86.3976ZM74.6607 70.0235C66.9405 77.1695 56.6255 81.8523 45.1466 82.7777L52.318 99.1478C53.0855 100.902 54.8252 102.04 56.854 102.115C56.9352 101.934 56.8284 102.113 57.0847 102.113C59.0268 102.113 60.7643 101.122 61.6442 99.4928L66.2208 91.0605L75.8716 92.8624C77.707 93.2114 79.6025 92.5836 80.8092 91.2374C82.0171 89.888 82.3308 88.0344 81.6367 86.401L74.6607 70.0235Z" fill="#63C196"/>
</svg>
