<svg width="42" height="83" viewBox="0 0 42 83" fill="none" xmlns="http://www.w3.org/2000/svg">
<path d="M27.5625 0C29.7445 0 31.5 1.74268 31.5 3.89062V10.375H10.5V3.89062C10.5 1.74268 12.2555 0 14.4375 0H27.5625ZM0 24.592C0 22.0631 1.48312 19.7611 3.80461 18.6912L7.80937 16.827C9.61078 15.9953 11.5828 15.5625 13.568 15.5625H28.432C30.4172 15.5625 32.3859 15.9953 34.1906 16.827L38.1937 18.6912C40.3758 19.7611 42 22.0631 42 24.592C42 26.9264 40.7695 28.9689 38.8992 30.1199C40.7859 31.5465 42 33.7836 42 36.1666C42 39.0197 40.6055 41.4027 38.4727 42.651C40.6055 44.191 42 46.574 42 49.1354C42 51.9885 40.6055 54.3715 38.4727 55.7656C40.6055 57.1598 42 59.5428 42 62.25C42 64.9572 40.6055 67.3402 38.4727 68.7344C40.6055 70.1285 42 72.5115 42 75.2188C42 79.5146 38.4727 83 34.125 83H7.875C3.5257 83 0 79.5146 0 75.2188C0 72.5115 1.39781 70.1285 3.52078 68.7344C1.39781 67.3402 0 64.9572 0 62.25C0 59.5428 1.39781 57.1598 3.52078 55.7656C1.39781 54.3715 0 51.9885 0 49.1354C0 46.574 1.39781 44.191 3.52078 42.651C1.39781 41.4027 0 39.0197 0 36.1666C0 33.7836 1.21406 31.5465 3.09586 30.1199C1.23539 28.9689 0 26.9264 0 24.592ZM13.125 41.5H28.875C30.3188 41.5 31.5 40.3328 31.5 38.9062C31.5 37.4797 30.3188 36.3125 28.875 36.3125H13.125C11.6812 36.3125 10.5 37.4797 10.5 38.9062C10.5 40.3328 11.6812 41.5 13.125 41.5ZM13.125 57.0625C11.6812 57.0625 10.5 58.2297 10.5 59.6562C10.5 61.0828 11.6812 62.25 13.125 62.25H28.875C30.3188 62.25 31.5 61.0828 31.5 59.6562C31.5 58.2297 30.3188 57.0625 28.875 57.0625H13.125Z" fill="#0A78B8"/>
</svg>
